# Blender 3.6.0
# www.blender.org
mtllib torch.mtl
o Circle
v 0.573307 2.772552 0.782620
v 0.921065 2.757616 -0.322125
v -0.017898 2.739998 -1.017574
v -0.999945 2.717210 -0.338622
v -0.627951 2.763430 0.785045
v 0.916602 3.017074 -0.327033
v -0.022362 2.999456 -1.022482
v -1.004409 2.976668 -0.343530
v -0.632415 3.022889 0.780138
v 0.568844 3.032010 0.777712
v -0.632415 3.022889 0.780138
v 0.568844 3.032010 0.777712
v 0.916602 3.017074 -0.327033
v -0.022362 2.999456 -1.022482
v -1.004409 2.976668 -0.343530
v -0.460791 3.021337 0.541988
v 0.394313 3.024518 0.540325
v 0.638925 3.014005 -0.236750
v -0.027239 3.004902 -0.730169
v -0.722660 2.983299 -0.249211
v -0.298857 2.118138 0.358046
v 0.257572 2.120208 0.356963
v -0.469259 2.093387 -0.156800
v 0.416745 2.113367 -0.148691
v -0.016738 2.107444 -0.469767
v -0.088032 0.041450 0.210132
v 0.155098 0.042355 0.209659
v -0.162489 0.030635 -0.014829
v 0.224649 0.039366 -0.011286
v 0.035239 0.036777 -0.151580
v -0.298857 2.118138 0.358046
v 0.257572 2.120208 0.356963
v -0.469259 2.093387 -0.156800
v 0.416745 2.113367 -0.148691
v -0.016738 2.107444 -0.469767
vn 0.7933 -0.5518 0.2572
vn 0.9207 0.2294 -0.3158
vn 0.9537 0.0221 0.2999
vn -0.9492 -0.0104 0.3146
vn 0.0019 0.0189 0.9998
vn -0.5681 -0.0253 -0.8226
vn 0.5952 -0.0050 -0.8035
vn -0.0000 -1.0000 -0.0000
vn -0.0060 0.9998 -0.0190
vn -0.0172 0.9997 -0.0189
vn -0.0078 0.9999 -0.0120
vn -0.0321 0.9995 -0.0082
vn -0.0227 0.9991 -0.0364
vn 0.0052 -0.5491 0.8357
vn 0.5473 0.2391 0.8021
vn -0.9335 0.2013 -0.2966
vn -0.0026 0.1991 -0.9800
vn -0.5825 0.2202 0.7824
vn -0.7690 -0.5749 0.2795
vn -0.4518 -0.5833 -0.6750
vn 0.4965 -0.5670 -0.6573
vn -0.5603 -0.1395 -0.8164
vn 0.0172 -0.9997 0.0189
vn 0.9514 -0.0682 0.3004
vn 0.0022 -0.0708 0.9975
vn 0.5927 -0.1078 -0.7982
vn -0.9410 -0.1181 0.3171
vt 0.000000 0.000000
s 0
usemtl Material.001
f 2/1/1 1/1/1 22/1/1 24/1/1
f 20/1/2 16/1/2 21/1/2 23/1/2
f 1/1/3 2/1/3 6/1/3 10/1/3
f 4/1/4 5/1/4 9/1/4 8/1/4
f 5/1/5 1/1/5 10/1/5 9/1/5
f 3/1/6 4/1/6 8/1/6 7/1/6
f 2/1/7 3/1/7 7/1/7 6/1/7
f 9/1/8 10/1/8 12/1/8 11/1/8
f 10/1/8 6/1/8 13/1/8 12/1/8
f 6/1/8 7/1/8 14/1/8 13/1/8
f 7/1/8 8/1/8 15/1/8 14/1/8
f 8/1/8 9/1/8 11/1/8 15/1/8
f 11/1/9 12/1/9 17/1/9 16/1/9
f 12/1/10 13/1/10 18/1/10 17/1/10
f 13/1/11 14/1/11 19/1/11 18/1/11
f 14/1/12 15/1/12 20/1/12 19/1/12
f 15/1/13 11/1/13 16/1/13 20/1/13
f 1/1/14 5/1/14 21/1/14 22/1/14
f 19/1/15 20/1/15 23/1/15 25/1/15
f 17/1/16 18/1/16 24/1/16 22/1/16
f 16/1/17 17/1/17 22/1/17 21/1/17
f 18/1/18 19/1/18 25/1/18 24/1/18
f 5/1/19 4/1/19 23/1/19 21/1/19
f 4/1/20 3/1/20 25/1/20 23/1/20
f 3/1/21 2/1/21 24/1/21 25/1/21
f 23/1/22 25/1/22 30/1/22 28/1/22
f 26/1/23 28/1/23 30/1/23 29/1/23 27/1/23
f 24/1/24 22/1/24 27/1/24 29/1/24
f 22/1/25 21/1/25 26/1/25 27/1/25
f 25/1/26 24/1/26 29/1/26 30/1/26
f 21/1/27 23/1/27 28/1/27 26/1/27
f 24/1/8 25/1/8 35/1/8 34/1/8
f 33/1/10 31/1/10 32/1/10 34/1/10 35/1/10
f 23/1/8 21/1/8 31/1/8 33/1/8
f 25/1/8 23/1/8 33/1/8 35/1/8
f 22/1/8 24/1/8 34/1/8 32/1/8
f 21/1/8 22/1/8 32/1/8 31/1/8
