# Blender 3.6.0
# www.blender.org
mtllib crystal3.mtl
o gem.005
v -0.011152 0.212638 0.137174
v -0.083421 0.017745 0.138125
v -0.025380 0.099848 0.144333
v -0.089015 -0.013877 0.140007
v 0.118247 0.339564 -0.055300
v 0.028724 0.458690 0.026551
v 0.047192 0.362690 0.085841
v -0.139936 0.126233 -0.012970
v -0.103674 0.343611 -0.017386
v -0.060991 0.259695 -0.125801
v -0.093602 -0.083968 0.141134
v -0.110800 0.012380 0.113762
v 0.037509 -0.415400 -0.049292
v 0.121638 -0.313247 0.005554
v -0.036863 -0.390095 0.085816
v 0.091819 0.219285 0.110140
v 0.143107 0.212162 -0.017197
v -0.074029 0.031038 -0.154278
v 0.123329 -0.032388 -0.114282
v 0.123195 0.223258 -0.106654
v 0.154057 0.116931 -0.020313
v -0.026455 0.292031 -0.136655
v -0.012941 0.465922 -0.028010
v 0.097418 0.293404 -0.119031
v 0.001210 0.030800 -0.196815
v -0.168480 -0.063955 0.001463
v -0.109985 -0.126411 0.123963
v -0.134587 -0.301273 -0.033200
v -0.088339 -0.384987 0.012274
v -0.067451 -0.353951 0.091253
v 0.109989 -0.163837 -0.120008
v 0.095440 -0.326065 -0.063648
v 0.003283 -0.165576 -0.183051
v -0.103511 -0.343935 -0.073495
v -0.029249 -0.305447 -0.144931
v 0.032572 -0.228563 0.127882
v 0.010336 -0.340548 0.105793
v 0.090887 -0.293271 0.080540
v 0.113397 -0.098653 0.100016
v 0.099047 0.110651 0.114696
v 0.064374 -0.012375 0.142578
v -0.052844 0.410717 -0.062071
v -0.045787 0.376386 0.069155
v -0.094172 -0.244804 0.119812
v 0.022719 0.185191 -0.186259
v -0.084045 -0.094588 -0.151489
v 0.031377 0.267550 0.121317
v 0.151528 -0.040774 -0.019423
v 0.143607 -0.055422 0.023314
v -0.037680 -0.449328 -0.007796
v 0.004576 -0.404469 -0.083806
v -0.063378 -0.403754 -0.069327
v -0.075117 -0.227684 -0.147576
v -0.112364 0.267880 0.032271
v -0.088374 0.378235 0.033850
v -0.058106 -0.333810 -0.127042
v 0.039984 -0.106325 0.144389
v 0.049396 0.445360 -0.011959
v 0.136612 0.094483 0.045696
v -0.004840 0.464403 0.020365
vn -0.3183 -0.2739 0.9076
vn 0.0345 0.6095 0.7920
vn -0.7424 -0.1311 0.6570
vn -0.0783 0.6225 0.7787
vn -0.5036 -0.4395 0.7438
vn 0.2877 0.3824 0.8781
vn 0.6119 0.4896 0.6212
vn 0.9089 0.0819 0.4089
vn 0.6826 0.7259 0.0843
vn -0.5687 0.5333 -0.6262
vn -0.6900 -0.3359 -0.6411
vn -0.9823 -0.1872 0.0037
vn 0.3595 0.3389 0.8694
vn -0.0203 0.5806 0.8140
vn -0.3173 -0.5403 0.7793
vn -0.7803 -0.4610 0.4226
vn -0.4420 -0.4948 0.7482
vn -0.6785 0.5962 0.4292
vn 0.5244 -0.5605 0.6409
vn 0.1704 -0.8700 0.4628
vn 0.7611 -0.6477 -0.0349
vn 0.9473 0.2004 -0.2498
vn 0.5932 0.4204 0.6866
vn 0.8656 -0.0507 0.4982
vn -0.5157 -0.0162 -0.8566
vn -0.7906 -0.4510 -0.4141
vn -0.7143 0.6367 -0.2905
vn 0.8844 0.4604 -0.0772
vn 0.8515 -0.5236 -0.0271
vn 0.6264 -0.3601 -0.6913
vn 0.5124 0.5822 -0.6312
vn 0.1461 0.4196 -0.8959
vn -0.4267 0.4413 -0.7894
vn 0.3462 -0.5492 -0.7606
vn 0.3710 0.5016 -0.7815
vn 0.8950 0.0475 -0.4435
vn -0.5276 -0.1678 0.8327
vn -0.9301 0.3673 0.0053
vn -0.9181 -0.3952 -0.0286
vn -0.5453 -0.6227 0.5612
vn -0.9770 0.0422 0.2089
vn -0.9587 -0.2822 0.0348
vn 0.7874 -0.6157 0.0300
vn 0.7259 -0.0988 -0.6806
vn 0.9759 0.1428 0.1651
vn 0.8550 0.1769 -0.4875
vn 0.5302 -0.5182 -0.6711
vn -0.0108 0.1207 -0.9926
vn -0.4818 -0.8202 -0.3084
vn -0.6940 -0.6174 0.3704
vn -0.8538 -0.3117 -0.4171
vn 0.2850 0.2172 -0.9336
vn 0.8144 -0.1896 -0.5484
vn 0.2308 -0.7778 -0.5846
vn 0.3579 -0.7634 0.5377
vn 0.5009 0.2174 0.8378
vn -0.0197 -0.2383 0.9710
vn 0.3824 0.4296 0.8181
vn 0.3898 -0.6329 0.6689
vn 0.8895 -0.3147 0.3313
vn -0.3880 0.3273 -0.8616
vn -0.8112 -0.2835 -0.5114
vn -0.8177 0.5738 -0.0450
vn -0.1964 0.2377 0.9513
vn 0.4718 0.3637 0.8032
vn -0.5124 0.5248 0.6798
vn -0.3433 0.1804 0.9217
vn -0.5517 -0.4011 0.7312
vn 0.4478 -0.4907 0.7474
vn -0.5570 -0.3828 0.7370
vn -0.9766 -0.0253 0.2134
vn -0.8205 -0.5233 -0.2302
vn -0.1427 0.5910 -0.7939
vn -0.0985 -0.2573 -0.9613
vn -0.8116 -0.2646 -0.5209
vn -0.0350 0.8837 -0.4667
vn 0.3782 0.0890 -0.9215
vn -0.1706 0.0083 -0.9853
vn -0.6937 -0.6883 0.2122
vn -0.7178 0.0991 0.6891
vn -0.9586 0.2520 -0.1328
vn -0.8752 -0.4838 -0.0040
vn -0.8017 0.4472 -0.3966
vn -0.4773 -0.1916 -0.8576
vn 0.7135 0.1835 0.6762
vn 0.9719 0.2267 -0.0633
vn 0.7785 0.6099 -0.1483
vn 0.2604 0.6366 0.7259
vn -0.2356 0.4336 0.8698
vn 0.3783 -0.4413 0.8137
vn -0.1006 0.8165 0.5685
vn -0.1745 -0.0977 0.9798
vn 0.2106 -0.1061 0.9718
vn 0.8221 0.0981 0.5608
vn 0.1385 0.7601 0.6348
vn 0.4687 -0.1913 0.8624
vn 0.9539 0.0409 0.2972
vn 0.6877 -0.6796 -0.2554
vn 0.8733 0.2523 -0.4169
vn 0.7856 -0.5952 0.1692
vn 0.8276 0.5157 0.2217
vn 0.5529 0.0433 0.8321
vn -0.7324 -0.4163 0.5388
vn -0.1855 -0.1542 0.9705
vn -0.7888 0.5381 0.2971
vn -0.7760 -0.1046 0.6220
vn -0.0941 0.4055 0.9092
vn -0.9441 0.2908 0.1550
vn 0.3614 -0.7262 0.5848
vn 0.5158 -0.8550 -0.0534
vn 0.6398 -0.6141 0.4621
vn -0.3609 -0.9115 -0.1971
vn -0.1246 -0.7479 -0.6520
vn 0.2542 -0.8775 -0.4067
vn -0.5007 0.0421 -0.8646
vn -0.8496 -0.5028 -0.1591
vn -0.9476 0.2500 -0.1989
vn -0.5846 0.3955 -0.7084
vn -0.1320 0.3981 -0.9078
vn -0.4064 -0.5320 -0.7428
vn -0.2815 0.2573 -0.9244
vn 0.2065 0.0104 -0.9784
vn -0.5662 -0.5431 -0.6201
vn -0.0341 -0.5562 -0.8303
vn 0.6677 0.0729 -0.7408
vn 0.4893 -0.7526 -0.4407
vn -0.8187 -0.4685 0.3321
vn -0.5548 0.4134 0.7220
vn -0.8235 0.5651 -0.0502
vn -0.3980 -0.3009 0.8666
vn -0.2934 0.7446 0.5996
vn -0.8775 0.1686 0.4490
vn 0.3720 -0.9264 0.0577
vn 0.8779 -0.4208 0.2284
vn 0.2878 -0.6123 0.7364
vn 0.8760 0.3176 0.3629
vn 0.6752 -0.6063 0.4201
vn 0.9775 -0.0704 -0.1986
vn -0.7873 0.4059 -0.4641
vn -0.9627 0.1459 0.2277
vn -0.4524 0.8890 0.0709
vn -0.1263 0.1402 0.9820
vn -0.7564 0.4389 0.4850
vn -0.8248 -0.3213 0.4653
vn 0.3965 0.0784 -0.9147
vn 0.6705 -0.5682 -0.4772
vn -0.1000 -0.3183 -0.9427
vn 0.4476 -0.8851 0.1277
vn 0.5046 -0.7418 -0.4418
vn 0.9263 -0.3468 -0.1472
vn -0.5694 -0.6946 -0.4397
vn -0.9423 -0.2611 -0.2095
vn -0.5024 0.1711 -0.8475
vn 0.1361 -0.8741 -0.4663
vn -0.5733 -0.4945 -0.6533
vn 0.0728 -0.3338 -0.9398
vn -0.0037 0.6193 0.7851
vn -0.0110 -0.4589 0.8884
vn 0.5451 0.4760 0.6901
vn 0.0715 -0.6038 0.7939
vn 0.3120 0.4507 0.8364
vn -0.4521 0.2249 0.8631
vn -0.9676 -0.2521 -0.0096
vn -0.9524 0.2900 0.0942
vn -0.4703 0.2771 -0.8379
vn -0.2950 0.6088 -0.7365
vn -0.3832 -0.5387 -0.7503
vn -0.8325 -0.1343 -0.5375
vn 0.1983 0.7297 -0.6544
vn 0.3222 0.9218 -0.2155
vn 0.6808 0.1374 -0.7195
vn 0.8605 0.3438 0.3758
vn 0.9383 -0.2299 -0.2582
vn 0.6677 0.5730 -0.4752
vn 0.1872 -0.7502 0.6342
vn 0.7951 -0.6060 0.0232
vn 0.8994 -0.3837 0.2093
vn 0.1685 0.1590 0.9728
vn -0.4641 -0.5122 0.7227
vn 0.1497 -0.7412 0.6544
vn -0.8174 0.3374 -0.4670
vn -0.9112 -0.3603 0.1999
vn -0.7558 0.6470 0.1007
vn -0.7856 0.0042 0.6188
vn -0.6887 0.7242 0.0345
vn -0.9898 -0.1408 0.0203
vn 0.6550 -0.2631 0.7084
vn 0.8712 -0.4836 -0.0844
vn 0.7971 0.5614 0.2224
vn 0.9718 0.0778 0.2224
vn 0.7543 -0.5926 -0.2826
vn 0.6301 0.2498 -0.7352
vn 0.8151 0.4509 -0.3637
vn 0.6845 -0.4241 -0.5930
vn 0.0233 0.2105 -0.9773
vn 0.5538 0.7614 -0.3371
vn 0.8702 0.4915 0.0349
vn 0.7456 -0.0356 -0.6655
vn 0.7789 -0.5967 0.1932
vn 0.9706 0.2044 0.1268
vn 0.7484 0.1821 0.6378
vn 0.8886 -0.2715 0.3696
vn 0.3204 0.2560 0.9120
vn 0.3372 -0.6092 0.7178
vn 0.0804 0.1523 -0.9851
vn -0.5201 -0.4630 -0.7177
vn -0.5996 0.5346 -0.5955
vn 0.9610 -0.0678 -0.2682
vn 0.1445 -0.3973 -0.9062
vn 0.7351 0.3981 -0.5488
vn 0.3216 0.3553 0.8777
vn -0.4641 -0.3515 0.8131
vn 0.4729 -0.3511 0.8081
vn -0.8134 -0.5792 0.0540
vn -0.5864 -0.5343 0.6089
vn -0.8396 0.4711 0.2703
vn -0.9499 0.1096 0.2927
vn -0.3720 -0.0916 0.9237
vn -0.2739 0.6052 0.7475
vn -0.6383 0.3713 0.6743
vn -0.1618 0.7360 0.6573
vn -0.2305 0.9342 0.2724
vn -0.6157 -0.7775 0.1281
vn -0.4701 -0.4975 0.7290
vn -0.6879 -0.5428 0.4817
vn -0.5172 -0.8286 -0.2145
vn -0.6953 -0.6586 0.2879
vn -0.8590 -0.4937 -0.1355
vn -0.6919 0.5596 0.4562
vn -0.5705 0.7373 -0.3619
vn -0.8489 0.5208 -0.0900
vn -0.0035 0.8519 -0.5236
vn 0.4980 0.5769 -0.6474
vn -0.0402 0.4316 -0.9011
vn -0.3559 0.4569 -0.8152
vn 0.1502 0.2502 -0.9565
vn -0.5742 -0.4618 -0.6761
vn -0.6275 0.3355 -0.7026
vn -0.6783 -0.6565 -0.3299
vn -0.9876 -0.1567 0.0044
vn -0.0389 0.4929 0.8692
vn -0.4490 0.2973 0.8427
vn 0.3621 -0.4942 0.7904
vn 0.0437 -0.0109 0.9990
vn 0.3574 -0.6500 0.6707
vn 0.7163 0.2956 0.6321
vn -0.3754 0.4375 0.8171
vn -0.0202 0.2784 0.9602
vn 0.2804 0.8070 0.5197
vn 0.4743 0.5418 -0.6939
vn 0.2186 0.2199 -0.9507
vn 0.0637 0.9251 -0.3743
vn -0.6741 -0.5482 0.4950
vn -0.9396 -0.2034 0.2753
vn -0.4865 -0.8407 0.2378
vn -0.3509 0.1972 0.9154
vn 0.0061 -0.7863 0.6179
vn 0.1197 -0.1540 0.9808
vn 0.0543 0.4491 -0.8918
vn -0.6429 -0.2010 -0.7391
vn -0.7272 0.5277 -0.4390
vn -0.7168 0.5783 -0.3895
vn -0.3855 0.8021 -0.4562
vn -0.4170 -0.1620 -0.8943
vn -0.0231 -0.4363 0.8995
vn 0.5347 -0.2664 0.8020
vn 0.3646 0.6086 0.7048
vn -0.5653 0.5500 0.6148
vn 0.0109 -0.1949 0.9808
vn 0.0239 0.6630 0.7482
vn 0.7689 -0.3556 -0.5313
vn 0.0626 -0.0507 -0.9967
vn 0.3095 0.4889 -0.8156
vn 0.8878 0.4467 -0.1109
vn 0.8335 -0.5453 -0.0885
vn 0.6047 -0.4031 -0.6869
vn -0.1431 0.9873 -0.0687
vn 0.4299 0.9003 -0.0676
vn 0.3579 0.8262 -0.4351
vn 0.6578 0.2285 0.7177
vn 0.9696 0.2234 0.1001
vn 0.6059 0.6615 0.4419
vn 0.6934 -0.4150 0.5891
vn 0.8833 -0.2385 -0.4037
vn 0.9362 0.3300 0.1210
vn 0.7704 -0.5801 0.2645
vn 0.8793 0.4503 -0.1549
vn 0.7565 0.5081 0.4119
vn -0.6654 -0.5805 -0.4694
vn -0.4524 -0.8912 -0.0327
vn -0.9487 -0.2775 0.1514
vn -0.5873 -0.7750 -0.2334
vn -0.7129 -0.0683 -0.6979
vn -0.2133 -0.3905 -0.8956
vn -0.5158 -0.6421 0.5671
vn -0.1053 0.1286 0.9861
vn -0.4749 0.5002 0.7241
vn -0.9429 -0.2860 0.1704
vn -0.5942 -0.5622 0.5752
vn -0.6084 0.5660 0.5563
vn 0.7269 0.6720 0.1415
vn 0.7523 -0.2228 0.6201
vn 0.9291 -0.3673 0.0430
vn 0.4399 -0.1660 0.8826
vn 0.8812 -0.4714 -0.0360
vn 0.6325 0.4825 0.6059
vn -0.7325 0.6397 0.2329
vn -0.4229 0.9062 -0.0002
vn -0.8036 0.5912 -0.0694
vn 0.3864 0.9155 -0.1121
vn -0.0805 0.9783 -0.1911
vn 0.2071 0.9720 0.1113
vn 0.5105 0.4864 0.7091
vn 0.7620 -0.5087 0.4008
vn 0.9448 0.2682 -0.1885
vn -0.0886 0.4613 0.8828
vn 0.3163 -0.5094 0.8003
vn 0.5228 0.5852 0.6199
vn -0.7567 -0.4229 -0.4985
vn -0.9438 0.3255 0.0570
vn -0.6333 0.6132 -0.4721
vn -0.9083 -0.4158 -0.0466
vn -0.7517 0.3996 0.5247
vn -0.7309 0.6689 0.1355
vn -0.0751 -0.8610 -0.5031
vn 0.2344 -0.8275 -0.5101
vn 0.3601 -0.9317 -0.0475
vn 0.8473 -0.2058 -0.4897
vn 0.0640 -0.7842 -0.6172
vn 0.5630 -0.2488 -0.7881
vn 0.7366 0.3944 -0.5494
vn 0.6978 0.6669 -0.2614
vn 0.9608 -0.2350 -0.1470
vn 0.8824 -0.3725 0.2874
vn 0.8976 0.3562 -0.2597
vn 0.6641 0.6228 0.4135
vn -0.2635 0.4255 0.8658
vn -0.1707 -0.5800 0.7966
vn 0.5360 0.0239 0.8439
vn 0.6644 0.4084 0.6259
vn 0.1202 -0.4638 0.8777
vn 0.8233 -0.3154 0.4720
vn 0.3227 -0.1640 -0.9322
vn -0.1426 -0.8284 -0.5417
vn -0.2424 -0.1731 -0.9546
vn -0.0626 -0.6473 -0.7596
vn -0.7019 -0.0558 -0.7101
vn -0.3617 0.2668 -0.8933
vt 0.386981 0.163332
vt 0.389028 0.247097
vt 0.376886 0.209371
vt 0.388191 0.259873
vt 0.627803 0.708634
vt 0.598861 0.769281
vt 0.567822 0.726993
vt 0.460693 0.213872
vt 0.473046 0.126967
vt 0.519176 0.164739
vt 0.384314 0.287191
vt 0.402314 0.250791
vt 0.402435 0.476561
vt 0.345503 0.486936
vt 0.380104 0.416525
vt 0.560081 0.659502
vt 0.615983 0.657103
vt 0.520496 0.259135
vt 0.665584 0.564620
vt 0.651602 0.665325
vt 0.619948 0.619593
vt 0.695034 0.720076
vt 0.628557 0.779314
vt 0.654844 0.693405
vt 0.722913 0.596395
vt 0.444994 0.287036
vt 0.389840 0.304859
vt 0.442178 0.379732
vt 0.417685 0.411453
vt 0.385181 0.398431
vt 0.673779 0.513635
vt 0.630116 0.447356
vt 0.661222 0.446476
vt 0.723156 0.513163
vt 0.454463 0.399085
vt 0.722537 0.450138
vt 0.560020 0.469794
vt 0.572247 0.422800
vt 0.596469 0.452513
vt 0.579824 0.529542
vt 0.562686 0.613444
vt 0.549274 0.561793
vt 0.498665 0.101759
vt 0.418300 0.057858
vt 0.429655 0.104323
vt 0.390794 0.096698
vt 0.350041 0.396786
vt 0.332215 0.346006
vt 0.382259 0.351226
vt 0.561226 0.196821
vt 0.705322 0.662591
vt 0.509881 0.309725
vt 0.329798 0.241839
vt 0.349792 0.145614
vt 0.379927 0.137123
vt 0.626007 0.557833
vt 0.609830 0.549987
vt 0.420482 0.443982
vt 0.466506 0.445591
vt 0.449203 0.425433
vt 0.498773 0.363353
vt 0.537891 0.348338
vt 0.555238 0.265284
vt 0.499861 0.401656
vt 0.449366 0.153179
vt 0.454649 0.106868
vt 0.692802 0.409150
vt 0.671976 0.405014
vt 0.481144 0.405104
vt 0.330541 0.287979
vt 0.613197 0.758337
vt 0.352712 0.425779
vt 0.593753 0.609067
vt 0.433169 0.060940
vt 0.497637 0.072484
vt 0.532194 0.149902
vt 0.546769 0.520116
vt 0.479321 0.063649
vt 0.607376 0.782052
vt 0.420960 0.483543
s 0
usemtl Material_#3
f 1/1/1 2/2/2 3/3/3
f 4/4/4 3/3/5 2/2/6
f 5/5/7 6/6/8 7/7/9
f 8/8/10 9/9/11 10/10/12
f 4/4/13 11/11/14 3/3/15
f 4/4/16 12/12/17 11/11/18
f 13/13/19 14/14/20 15/15/21
f 16/16/22 17/17/23 5/5/24
f 8/8/25 10/10/26 18/18/27
f 19/19/28 20/20/29 21/21/30
f 22/22/31 23/23/32 24/24/33
f 20/20/34 19/19/35 25/25/36
f 26/26/37 27/27/38 12/12/39
f 28/28/40 29/29/41 30/30/42
f 31/31/43 14/32/44 32/33/45
f 33/34/46 25/25/47 31/31/48
f 28/28/49 34/35/50 29/29/51
f 32/33/52 35/36/53 31/31/54
f 36/37/55 37/38/56 38/39/57
f 39/40/58 40/41/59 41/42/60
f 9/9/61 42/43/62 10/10/63
f 6/44/64 43/45/65 7/46/66
f 37/47/67 36/48/68 44/49/69
f 28/28/70 30/30/71 44/49/72
f 18/18/73 10/10/74 45/50/75
f 45/51/76 22/22/77 24/24/78
f 26/26/79 28/28/80 44/49/81
f 46/52/82 28/28/83 26/26/84
f 5/5/85 7/7/86 16/16/87
f 41/53/88 16/54/89 47/55/90
f 47/55/91 7/46/92 43/45/93
f 47/55/94 16/54/95 7/46/96
f 31/31/97 48/56/98 14/32/99
f 40/41/100 39/40/101 49/57/102
f 2/2/103 12/12/104 4/4/105
f 1/1/106 12/12/107 2/2/108
f 13/13/109 15/15/110 50/58/111
f 51/59/112 50/58/113 52/60/114
f 28/28/115 53/61/116 34/35/117
f 33/62/118 53/61/119 25/63/120
f 35/64/121 53/61/122 33/62/123
f 31/31/124 35/36/125 33/34/126
f 54/65/127 26/26/128 12/12/129
f 54/65/130 12/12/131 1/1/132
f 38/39/133 37/38/134 14/32/135
f 14/32/136 49/57/137 39/40/138
f 55/66/139 42/43/140 9/9/141
f 54/65/142 1/1/143 43/45/144
f 51/67/145 35/36/146 32/33/147
f 32/33/148 14/32/149 13/68/150
f 53/61/151 56/69/152 34/35/153
f 56/69/154 51/59/155 52/60/156
f 41/53/157 47/55/158 3/3/159
f 3/3/160 11/11/161 57/70/162
f 18/18/163 46/52/164 26/26/165
f 46/52/166 18/18/167 25/63/168
f 5/5/169 24/24/170 58/71/171
f 20/20/172 5/5/173 21/21/174
f 14/14/175 37/72/176 15/15/177
f 15/15/178 37/47/179 44/49/180
f 54/65/181 9/9/182 8/8/183
f 9/9/184 54/65/185 55/66/186
f 21/21/187 59/73/188 49/57/189
f 19/19/190 21/21/191 48/56/192
f 45/51/193 24/24/194 20/20/195
f 20/20/196 24/24/197 5/5/198
f 39/40/199 38/39/200 14/32/201
f 36/37/202 38/39/203 39/40/204
f 18/18/205 45/50/206 25/63/207
f 45/51/208 20/20/209 25/25/210
f 44/49/211 57/70/212 11/11/213
f 27/27/214 26/26/215 44/49/216
f 43/45/217 55/66/218 54/65/219
f 60/74/220 55/66/221 43/45/222
f 30/30/223 29/29/224 50/58/225
f 29/29/226 52/60/227 50/58/228
f 42/43/229 55/66/230 23/75/231
f 22/76/232 42/43/233 23/75/234
f 53/61/235 46/52/236 25/63/237
f 28/28/238 46/52/239 53/61/240
f 57/70/241 41/53/242 3/3/243
f 39/40/244 41/42/245 57/77/246
f 6/44/247 60/74/248 43/45/249
f 23/23/250 58/71/251 24/24/252
f 50/58/253 15/15/254 30/30/255
f 15/15/256 44/49/257 30/30/258
f 10/10/259 22/76/260 45/50/261
f 22/76/262 10/10/263 42/43/264
f 47/55/265 1/1/266 3/3/267
f 47/55/268 43/45/269 1/1/270
f 25/25/271 19/19/272 31/31/273
f 31/31/274 19/19/275 48/56/276
f 58/71/277 23/23/278 6/6/279
f 58/71/280 6/6/281 5/5/282
f 48/56/283 49/57/284 14/32/285
f 21/21/286 49/57/287 48/56/288
f 29/29/289 34/35/290 52/60/291
f 56/69/292 52/60/293 34/35/294
f 11/11/295 27/27/296 44/49/297
f 11/11/298 12/12/299 27/27/300
f 59/73/301 17/17/302 16/16/303
f 59/73/304 40/41/305 49/57/306
f 23/75/307 55/66/308 60/78/309
f 60/79/310 6/6/311 23/23/312
f 59/73/313 16/16/314 40/41/315
f 40/41/316 16/16/317 41/42/318
f 8/8/319 18/18/320 26/26/321
f 54/65/322 8/8/323 26/26/324
f 13/13/325 50/58/326 51/80/327
f 51/67/328 32/33/329 13/68/330
f 17/17/331 21/21/332 5/5/333
f 17/17/334 59/73/335 21/21/336
f 36/48/337 57/70/338 44/49/339
f 36/37/340 39/40/341 57/77/342
f 56/69/343 35/64/344 51/59/345
f 53/61/346 35/64/347 56/69/348
