# Blender 3.6.0
# www.blender.org
mtllib crystal1.mtl
o gem.001
v 0.059497 0.126107 -0.037537
v 0.072277 0.137807 0.004137
v 0.088391 -0.031434 0.024004
v -0.037474 0.129256 -0.053686
v -0.006219 0.207221 -0.036035
v 0.014582 0.163038 -0.062750
v -0.071988 0.012840 0.055424
v -0.069663 -0.075708 0.070988
v -0.014348 -0.007740 0.090122
v -0.043461 -0.047162 -0.079174
v -0.012297 -0.123662 -0.079467
v -0.081181 -0.123277 -0.066668
v 0.027912 0.058982 0.082413
v 0.002443 -0.047949 0.102353
v -0.009862 -0.130162 -0.067126
v 0.008412 -0.128697 0.084079
v -0.071128 -0.130217 -0.058483
v -0.058237 0.086594 -0.064453
v -0.051481 0.049223 -0.086718
v -0.081564 -0.072412 -0.071539
v -0.081711 -0.123625 0.047587
v -0.081839 -0.017426 0.042204
v 0.068743 -0.129503 -0.037537
v 0.074749 -0.129301 0.024224
v 0.061309 -0.033503 -0.061285
v 0.034393 0.185981 -0.004139
v -0.024473 0.096628 0.069450
v -0.083432 0.043308 -0.031439
v -0.054539 0.103567 0.045683
v 0.008686 0.039701 -0.087432
v 0.001874 0.223755 0.002563
v 0.000868 0.225018 0.052806
v 0.045251 0.175032 0.060899
v 0.016156 0.004106 -0.087963
v 0.002424 -0.070745 -0.085363
v 0.079620 0.130611 0.029405
v 0.068725 -0.088964 -0.048157
v 0.090716 -0.084881 0.010546
v -0.073801 -0.127928 0.059873
v 0.017768 -0.116612 0.091458
v -0.007958 -0.114232 0.098654
v 0.088848 -0.117345 0.007451
v 0.081634 -0.113188 0.036345
v -0.003161 0.088791 -0.087981
v 0.004530 -0.101891 0.102261
vn 0.9613 0.0374 -0.2729
vn 0.9520 0.0082 -0.3058
vn 0.9488 0.0643 -0.3092
vn -0.3559 0.3612 -0.8619
vn -0.4266 0.1201 -0.8964
vn -0.4010 0.3485 -0.8472
vn -0.4671 0.1139 0.8769
vn -0.4719 0.1733 0.8645
vn -0.5008 0.1468 0.8530
vn -0.1838 -0.0767 -0.9800
vn -0.2264 -0.0598 -0.9722
vn -0.0385 0.0797 -0.9961
vn 0.6718 -0.0953 0.7346
vn 0.7509 0.0587 0.6578
vn 0.6690 -0.0199 0.7430
vn -0.0192 -0.9985 0.0508
vn -0.0656 -0.9912 -0.1154
vn 0.0974 -0.9949 0.0273
vn -0.8588 0.0630 -0.5083
vn -0.9061 0.2104 -0.3670
vn -0.8048 0.2994 -0.5124
vn -0.9949 0.1007 -0.0088
vn -0.9997 -0.0238 -0.0008
vn -0.9877 0.0411 0.1510
vn 0.0588 -0.9907 -0.1227
vn -0.0117 -0.9963 0.0848
vn -0.0701 -0.9945 -0.0781
vn 0.9506 0.0850 -0.2986
vn 0.9542 0.0169 -0.2988
vn 0.9482 0.0610 -0.3117
vn 0.7638 0.5168 -0.3867
vn 0.7405 0.5218 -0.4234
vn 0.7554 0.5541 -0.3498
vn -0.0871 0.3354 0.9380
vn -0.1649 0.2116 0.9633
vn -0.0823 0.1658 0.9827
vn -0.9995 -0.0280 -0.0138
vn -0.9925 -0.1202 0.0236
vn -0.9892 0.1210 0.0822
vn -0.9309 0.2111 0.2980
vn -0.9541 0.2320 0.1895
vn -0.9675 0.1568 0.1984
vn 0.7011 0.5399 -0.4658
vn 0.6798 0.5786 -0.4507
vn 0.7221 0.5440 -0.4274
vn 0.5675 0.0901 -0.8184
vn 0.5604 0.1496 -0.8146
vn 0.5829 0.1241 -0.8030
vn -0.8623 0.5026 0.0616
vn -0.9139 0.4042 -0.0378
vn -0.9972 0.0638 -0.0402
vn 0.8082 0.5763 -0.1208
vn 0.7337 0.6785 -0.0358
vn 0.7494 0.6621 0.0023
vn -0.0099 -0.9912 -0.1322
vn 0.0381 -0.9984 0.0418
vn -0.0594 -0.9965 0.0587
vn 0.4613 -0.1589 -0.8729
vn 0.4116 -0.1255 -0.9027
vn 0.4671 -0.0287 -0.8837
vn 0.7030 0.0241 0.7107
vn 0.6957 -0.0472 0.7168
vn 0.7509 -0.0142 0.6603
vn 0.7899 0.6130 -0.0167
vn 0.7899 0.6109 -0.0532
vn 0.7420 0.6703 -0.0123
vn 0.9350 0.1009 -0.3399
vn 0.9436 0.0250 -0.3303
vn 0.9160 0.0389 -0.3993
vn 0.5274 -0.1181 -0.8414
vn 0.4562 -0.1760 -0.8723
vn 0.4075 -0.1168 -0.9057
vn -0.8173 0.1435 -0.5581
vn -0.9024 0.0858 -0.4224
vn -0.8416 0.3033 -0.4468
vn -0.9533 0.1074 -0.2823
vn -0.8864 0.4519 -0.1005
vn -0.8372 0.5332 -0.1217
vn -0.9143 -0.0053 0.4050
vn -0.9009 0.0006 0.4339
vn -0.8783 0.1104 0.4651
vn -0.1501 -0.9884 -0.0242
vn 0.0026 -0.9999 -0.0109
vn 0.0197 -0.9938 0.1094
vn 0.5803 -0.6864 0.4383
vn 0.3997 -0.6884 0.6053
vn 0.5470 -0.7091 0.4450
vn -0.1730 -0.8262 0.5361
vn -0.1469 -0.7896 0.5958
vn -0.2693 -0.7066 0.6544
vn 0.9561 -0.0248 -0.2919
vn 0.9321 -0.0700 -0.3554
vn 0.9230 0.0086 -0.3848
vn 0.6027 -0.6355 0.4826
vn 0.4715 -0.6022 0.6443
vn 0.4692 -0.6916 0.5491
vn 0.6225 0.1899 -0.7593
vn 0.5797 0.1103 -0.8073
vn 0.5365 0.1427 -0.8318
vn -0.3724 0.3705 -0.8509
vn -0.4087 0.3530 -0.8416
vn -0.3870 0.4589 -0.7998
vn -0.4541 -0.1656 0.8754
vn -0.4539 -0.1292 0.8816
vn -0.5307 -0.1425 0.8355
vn -0.5313 0.1540 0.8331
vn -0.4453 0.0681 0.8928
vn -0.4058 0.1191 0.9062
vn -0.1623 -0.2459 -0.9556
vn -0.1429 -0.0840 -0.9862
vn -0.0218 0.0180 -0.9996
vn -0.2699 0.5479 -0.7918
vn -0.3527 0.3529 -0.8666
vn -0.4513 0.4065 -0.7944
vn -0.4849 -0.0870 0.8702
vn -0.3731 0.0208 0.9276
vn -0.4345 0.0598 0.8987
vn 0.6637 0.0214 0.7477
vn 0.7372 -0.0722 0.6718
vn 0.6630 0.1982 0.7219
vn 0.5872 0.1276 -0.7993
vn 0.5640 0.1518 -0.8117
vn 0.6072 0.1815 -0.7735
vn 0.0425 -0.2255 -0.9733
vn -0.0318 -0.0816 -0.9962
vn -0.0224 -0.0742 -0.9970
vn -0.9881 0.0831 0.1294
vn -0.8874 0.4591 -0.0422
vn -0.9601 0.2761 -0.0443
vn -0.0605 0.1370 0.9887
vn 0.0658 0.0185 0.9977
vn -0.0049 0.1669 0.9860
vn 0.1189 -0.8752 -0.4689
vn -0.0947 -0.9075 -0.4091
vn -0.1278 -0.8731 -0.4705
vn 0.1148 -0.8486 -0.5164
vn 0.2165 -0.8284 -0.5166
vn 0.2265 -0.8590 -0.4591
vn -0.5979 0.0678 0.7987
vn -0.5483 0.2576 0.7956
vn -0.5738 0.2552 0.7782
vn -0.6125 0.1955 0.7659
vn -0.5431 0.1801 0.8201
vn -0.5672 0.2215 0.7932
vn 0.9632 -0.0340 0.2668
vn 0.9518 -0.1161 0.2839
vn 0.9802 -0.0468 0.1924
vn 0.6087 0.1025 0.7868
vn 0.6495 0.0516 0.7586
vn 0.7553 0.1434 0.6394
vn -0.0629 -0.2365 -0.9696
vn -0.1389 -0.0996 -0.9853
vn -0.1075 0.1116 -0.9879
vn -0.9946 0.0318 -0.0989
vn -0.9872 -0.1013 0.1234
vn -0.9797 0.0809 0.1832
vn 0.9496 0.0140 0.3130
vn 0.9534 -0.0439 0.2984
vn 0.9611 0.0315 0.2745
vn 0.9289 0.1461 -0.3404
vn 0.9542 0.1179 -0.2750
vn 0.9441 0.1106 -0.3105
vn 0.1204 -0.8338 -0.5388
vn -0.1280 -0.8049 -0.5795
vn -0.0963 -0.7466 -0.6583
vn -0.5617 -0.8204 -0.1074
vn -0.4406 -0.8849 0.1513
vn -0.6125 -0.7873 0.0707
vn -0.1147 0.1682 0.9791
vn -0.0630 0.1805 0.9815
vn -0.1096 0.2649 0.9580
vn 0.6510 0.0113 0.7590
vn 0.7010 -0.0013 0.7132
vn 0.7240 0.0860 0.6844
vn -0.4869 -0.8674 0.1026
vn -0.4979 -0.8668 -0.0252
vn -0.4689 -0.8781 -0.0951
vn -0.8515 -0.0116 0.5242
vn -0.8497 -0.0778 0.5215
vn -0.7894 -0.0720 0.6097
vn 0.9311 -0.1381 -0.3376
vn 0.8983 -0.1059 -0.4264
vn 0.9300 -0.0213 -0.3668
vn 0.4002 -0.2831 -0.8716
vn 0.3871 -0.1665 -0.9069
vn 0.4980 -0.2572 -0.8282
vn 0.7603 0.6473 -0.0541
vn 0.7990 0.5991 -0.0523
vn 0.7560 0.6477 -0.0946
vn 0.9743 0.0447 -0.2206
vn 0.9464 0.0417 -0.3204
vn 0.9622 0.0710 -0.2630
vn -0.9588 0.2234 0.1757
vn -0.9422 0.1669 0.2905
vn -0.9538 0.2359 0.1861
vn -0.8716 0.0384 0.4887
vn -0.8586 0.0842 0.5056
vn -0.8706 0.0944 0.4829
vn 0.7754 -0.5437 0.3211
vn 0.7926 -0.5720 0.2112
vn 0.8376 -0.4557 0.3013
vn 0.6290 -0.7772 0.0199
vn 0.5714 -0.8199 -0.0364
vn 0.6463 -0.7498 -0.1421
vn 0.6556 0.5935 -0.4668
vn 0.6642 0.6096 -0.4327
vn 0.7582 0.3863 -0.5252
vn -0.9412 0.1767 -0.2880
vn -0.8836 0.3848 0.2669
vn -0.9215 0.3856 0.0461
vn -0.1367 -0.0206 -0.9904
vn -0.1919 -0.0149 -0.9813
vn -0.1302 -0.0090 -0.9914
vn -0.1321 -0.0097 -0.9912
vn -0.1608 -0.0625 -0.9850
vn -0.1987 0.0547 -0.9785
vn 0.2352 -0.4940 0.8371
vn 0.0975 -0.6805 0.7262
vn 0.2152 -0.6172 0.7568
vn -0.2735 -0.1475 0.9505
vn -0.2449 0.0433 0.9686
vn -0.4000 -0.1109 0.9098
vn 0.7547 0.6386 -0.1506
vn 0.7498 0.6616 0.0090
vn 0.7362 0.5692 0.3660
vn 0.6431 0.6471 -0.4096
vn 0.7971 0.5519 -0.2451
vn 0.8278 0.3065 -0.4699
vn -0.1770 -0.0192 -0.9840
vn -0.1619 -0.0688 -0.9844
vn -0.2229 -0.1287 -0.9663
vn 0.3659 -0.1988 -0.9092
vn 0.4582 -0.1785 -0.8707
vn 0.4746 -0.2870 -0.8321
vn 0.0887 -0.4424 0.8924
vn 0.2859 -0.5723 0.7686
vn 0.2526 -0.4275 0.8680
vn 0.7731 0.0038 0.6343
vn 0.5810 0.1067 0.8069
vn 0.5975 0.0312 0.8013
vn -0.8985 0.4315 -0.0811
vn -0.8493 0.5245 -0.0589
vn -0.8363 0.5349 -0.1205
vn -0.2949 0.3985 -0.8685
vn -0.3777 0.3716 -0.8481
vn -0.4331 0.4375 -0.7881
vn -0.3437 0.2811 0.8960
vn -0.3057 0.1155 0.9451
vn -0.2917 0.1307 0.9475
vn -0.4945 0.0883 0.8647
vn -0.4535 0.1244 0.8825
vn -0.4838 0.1569 0.8610
vn 0.1470 -0.0047 -0.9891
vn -0.0661 -0.0871 -0.9940
vn -0.0184 -0.0085 -0.9998
vn 0.5500 0.1052 -0.8285
vn 0.5758 0.1363 -0.8062
vn 0.6195 0.0571 -0.7829
vt 0.333301 0.919338
vt 0.312339 0.927735
vt 0.291113 0.841955
vt 0.872625 0.343419
vt 0.887077 0.378411
vt 0.863682 0.369390
vt 0.911542 0.282806
vt 0.915657 0.244105
vt 0.940337 0.274949
vt 0.392352 0.827521
vt 0.372122 0.789654
vt 0.408442 0.786477
vt 0.954656 0.306433
vt 0.949071 0.257855
vt 0.997703 0.272961
vt 0.147682 0.973408
vt 0.101081 0.913616
vt 0.171425 0.954176
vt 0.864658 0.322997
vt 0.850625 0.310129
vt 0.852060 0.252758
vt 0.902461 0.223969
vt 0.904255 0.270361
vt 0.106641 0.980987
vt 0.088195 0.956200
vt 0.336876 0.837771
vt 0.327998 0.955440
vt 0.930001 0.320848
vt 0.875846 0.300214
vt 0.913622 0.322913
vt 0.358439 0.939410
vt 0.368210 0.874132
vt 0.906165 0.383512
vt 0.310772 0.990768
vt 0.294019 0.960042
vt 0.363901 0.856099
vt 0.367879 0.817316
vt 0.980241 0.343461
vt 0.298650 0.926650
vt 0.328653 0.810321
vt 0.296536 0.813615
vt 0.142421 0.902926
vt 0.957735 0.222461
vt 0.997615 0.226107
vt 0.958792 0.229644
vt 0.103813 0.900821
vt 0.298377 0.797347
vt 0.995854 0.235552
vt 0.374543 0.899691
vt 0.844560 0.338778
vt 0.910922 0.221437
vt 0.946384 0.228366
vt 0.399155 0.877311
vt 0.411059 0.812989
vt 0.951415 0.235064
vt 0.930112 0.378909
vt 0.955045 0.359311
vt 0.178511 0.955287
vt 0.152271 0.978714
vt 0.283054 0.798525
vt 0.852131 0.230022
vt 0.149555 0.905894
vt 0.323714 0.789464
vt 0.290363 0.788085
vt 0.353646 0.968203
vt 0.334765 0.980280
s 0
usemtl Material_#3
f 1/1/1 2/2/2 3/3/3
f 4/4/4 5/5/5 6/6/6
f 7/7/7 8/8/8 9/9/9
f 10/10/10 11/11/11 12/12/12
f 13/13/13 14/14/14 3/15/15
f 15/16/16 16/17/17 17/18/18
f 18/19/19 19/20/20 20/21/21
f 21/22/22 22/23/23 20/21/24
f 16/17/25 23/24/26 24/25/27
f 25/26/28 1/1/29 3/3/30
f 26/27/31 2/2/32 1/1/33
f 14/14/34 13/13/35 27/28/36
f 22/23/37 28/29/38 20/21/39
f 28/29/40 7/7/41 29/30/42
f 26/27/43 1/1/44 6/31/45
f 1/1/46 25/26/47 30/32/48
f 28/29/49 29/30/50 31/33/51
f 32/34/52 33/35/53 26/27/54
f 16/17/55 15/16/56 23/24/57
f 34/36/58 25/26/59 35/37/60
f 3/15/61 36/38/62 13/13/63
f 26/27/64 33/35/65 36/39/66
f 37/40/67 25/26/68 38/41/69
f 35/37/70 25/26/71 37/40/72
f 28/29/73 18/19/74 20/21/75
f 31/33/76 4/4/77 28/29/78
f 8/8/79 22/23/80 21/22/81
f 16/17/82 39/42/83 17/18/84
f 16/43/85 24/44/86 40/45/87
f 41/46/88 39/42/89 16/17/90
f 37/40/91 38/41/92 42/47/93
f 40/45/94 24/44/95 43/48/96
f 44/49/97 6/31/98 1/1/99
f 4/4/100 6/6/101 44/50/102
f 8/8/103 39/51/104 41/52/105
f 14/14/106 9/9/107 8/8/108
f 19/53/109 10/10/110 20/54/111
f 19/20/112 18/19/113 44/50/114
f 14/14/115 8/8/116 41/52/117
f 3/15/118 14/14/119 45/55/120
f 30/32/121 25/26/122 34/36/123
f 19/53/124 30/32/125 10/10/126
f 31/33/127 29/30/128 32/56/129
f 33/57/130 32/56/131 27/28/132
f 12/58/133 11/59/134 15/16/135
f 23/24/136 15/16/137 11/59/138
f 32/56/139 29/30/140 27/28/141
f 27/28/142 29/30/143 7/7/144
f 42/47/145 38/41/146 43/60/147
f 43/48/148 3/15/149 45/55/150
f 20/54/151 10/10/152 12/12/153
f 21/22/154 20/21/155 12/61/156
f 38/41/157 3/3/158 43/60/159
f 38/41/160 25/26/161 3/3/162
f 12/58/163 15/16/164 17/18/165
f 21/62/166 12/58/167 17/18/168
f 33/57/169 27/28/170 13/13/171
f 36/38/172 33/57/173 13/13/174
f 17/18/175 39/42/176 21/62/177
f 39/51/178 8/8/179 21/22/180
f 37/40/181 42/47/182 23/63/183
f 37/40/184 23/63/185 35/37/186
f 2/2/187 26/27/188 36/39/189
f 2/2/190 36/39/191 3/3/192
f 7/7/193 28/29/194 22/23/195
f 7/7/196 22/23/197 8/8/198
f 42/47/199 43/60/200 24/64/201
f 23/63/202 42/47/203 24/64/204
f 26/27/205 6/31/206 5/65/207
f 31/33/208 5/5/209 4/4/210
f 30/32/211 34/36/212 10/10/213
f 10/10/214 34/36/215 35/37/216
f 16/43/217 40/45/218 41/52/219
f 14/14/220 41/52/221 45/55/222
f 32/34/223 26/27/224 31/66/225
f 26/27/226 5/65/227 31/66/228
f 11/11/229 10/10/230 35/37/231
f 23/63/232 11/11/233 35/37/234
f 40/45/235 45/55/236 41/52/237
f 45/55/238 40/45/239 43/48/240
f 4/4/241 18/19/242 28/29/243
f 18/19/244 4/4/245 44/50/246
f 14/14/247 27/28/248 9/9/249
f 27/28/250 7/7/251 9/9/252
f 19/53/253 44/49/254 30/32/255
f 1/1/256 30/32/257 44/49/258
